<?xml version="1.0" standalone="no"?>
<!DOCTYPE svg PUBLIC "-//W3C//DTD SVG 20010904//EN"
 "http://www.w3.org/TR/2001/REC-SVG-20010904/DTD/svg10.dtd">
<svg version="1.0" xmlns="http://www.w3.org/2000/svg"
 width="247pt" height="648pt" viewBox="0 0 247 648"
 preserveAspectRatio="xMidYMid meet">
<metadata>
Created by potrace 1.8, written by Peter Selinger 2001-2007
</metadata>
<g transform="translate(0,648) scale(0.219661,-0.219661)"
fill="#000000" stroke="none">
<path d="M225 2939 c-17 -4 -46 -25 -65 -44 l-35 -36 -3 -1053 -2 -1054 -29
-5 c-18 -4 -41 -21 -58 -43 l-28 -37 -3 -276 c-3 -309 0 -323 67 -368 33 -23
38 -23 340 -23 343 0 356 2 396 70 18 32 20 55 23 287 2 167 -1 266 -8 294
-13 47 -61 99 -91 99 -19 0 -19 26 -19 1035 0 1114 2 1073 -51 1122 -13 11
-42 26 -64 32 -47 13 -326 13 -370 0z m345 -789 l0 -660 -155 0 -155 0 0 660
0 660 155 0 155 0 0 -660z"/>
<path d="M790 2783 c-44 -16 -55 -91 -18 -117 18 -13 52 -16 164 -16 142 0
143 0 163 26 27 35 26 59 -4 89 -23 24 -29 25 -157 24 -73 0 -140 -3 -148 -6z"/>
<path d="M785 2248 c-28 -16 -35 -28 -35 -64 0 -57 19 -64 181 -64 159 0 175
5 185 55 4 22 0 38 -14 55 -19 24 -25 25 -159 28 -92 1 -145 -2 -158 -10z"/>
<path d="M772 1694 c-26 -18 -30 -69 -8 -100 13 -17 29 -19 146 -22 73 -2 143
-1 156 2 51 13 67 81 28 120 -23 23 -289 23 -322 0z"/>
<path d="M772 1124 c-16 -11 -22 -25 -22 -54 0 -63 19 -70 183 -70 133 0 139
1 162 25 14 13 25 34 25 45 0 12 -11 32 -25 45 -23 24 -29 25 -162 25 -109 0
-143 -3 -161 -16z"/>
</g>
</svg>
